<svg width="288" height="288" viewBox="0 0 288 288" fill="none" xmlns="http://www.w3.org/2000/svg">
<path d="M80 0C35.824 0 0 35.824 0 80V208C0 252.176 35.824 288 80 288H208C252.176 288 288 252.176 288 208V80C288 35.824 252.176 0 208 0H80ZM240 32C248.832 32 256 39.168 256 48C256 56.832 248.832 64 240 64C231.168 64 224 56.832 224 48C224 39.168 231.168 32 240 32ZM144 64C188.176 64 224 99.824 224 144C224 188.176 188.176 224 144 224C99.824 224 64 188.176 64 144C64 99.824 99.824 64 144 64ZM144 96C131.27 96 119.061 101.057 110.059 110.059C101.057 119.061 96 131.27 96 144C96 156.73 101.057 168.939 110.059 177.941C119.061 186.943 131.27 192 144 192C156.73 192 168.939 186.943 177.941 177.941C186.943 168.939 192 156.73 192 144C192 131.27 186.943 119.061 177.941 110.059C168.939 101.057 156.73 96 144 96Z" fill="white"/>
</svg>
